# xmcd
#
# Track frame offsets: 
#        150
#        21504
#        32368
#        50787
#        68458
#        83352
#        98577
#        114266
#        128193
#        145239
#        161150
#        178509
#        194239
#        210011
#
# Disc length: 3005 seconds
#
# Revision: 2
# Processed by: cddbd v1.5.2PL0 Copyright (c) Steve Scherf et al.
# Submitted via: ExactAudioCopy v1.0b3
#
DISCID=b40bbb0e
DTITLE=Karp, Peter and Sue Foley - He Said She Said
DYEAR=2010
DGENRE=Electric Blues
TTITLE0=Treat Me Right
TTITLE1=So Far So Fast
TTITLE2=Wait
TTITLE3=Rules Of Engagement
TTITLE4=Hold On Baby
TTITLE5=Mm Hmm
TTITLE6=Danger Lurks
TTITLE7=Ready For Your Love
TTITLE8=Scared
TTITLE9=Valentine's Day
TTITLE10=Dear Girl
TTITLE11=Baby Don't Go
TTITLE12=Regret
TTITLE13=Lost In You
EXTD=YEAR: 2010
EXTT0=
EXTT1=
EXTT2=
EXTT3=
EXTT4=
EXTT5=
EXTT6=
EXTT7=
EXTT8=
EXTT9=
EXTT10=
EXTT11=
EXTT12=
EXTT13=
PLAYORDER=
